<?xml version="1.0" encoding="UTF-8"?><svg xmlns="http://www.w3.org/2000/svg" viewBox="0 0 368.5 113.39"><defs><style>.cls-1{fill:#004a6e;}.cls-2{fill:#046392;}.cls-3{fill:#043852;}.cls-4{fill:#78c9f1;}.cls-5{fill:#428dcc;}.cls-5,.cls-6{mix-blend-mode:multiply;}.cls-6{fill:#8c4a6e;}.cls-7{isolation:isolate;}</style></defs><g class="cls-7"><g id="Logo"><g><polygon class="cls-1" points="89.47 39.15 72.4 29.29 72.4 29.29 72.4 29.29 72.4 29.29 55.32 19.43 38.25 29.29 38.25 29.29 21.17 39.15 21.17 58.86 21.17 58.86 21.17 78.58 38.25 88.44 38.25 88.44 38.25 88.44 55.32 98.3 72.4 88.44 72.4 88.44 89.47 78.58 89.47 58.86 89.47 58.86 89.47 58.86 89.47 39.15"/><g><g><path class="cls-3" d="M130.79,34.89c1.79-4.21,4.3-7.87,7.52-10.99,3.22-3.12,6.97-5.57,11.27-7.33,4.3-1.76,8.98-2.64,14.06-2.64,6,0,11.47,1.24,16.42,3.71,4.95,2.47,9.03,5.78,12.25,9.93l-8.54,7.61c-1.98-3.22-4.7-5.78-8.16-7.7-3.46-1.92-7.3-2.88-11.5-2.88-4.45,0-8.46,1.04-12.02,3.11-3.56,2.07-6.37,4.92-8.44,8.54-2.07,3.62-3.11,7.72-3.11,12.29s1.04,8.67,3.11,12.29c2.07,3.62,4.89,6.46,8.44,8.54,3.56,2.07,7.56,3.11,12.02,3.11s8.12-.97,11.55-2.92c3.43-1.95,6.14-4.53,8.12-7.75l8.72,7.42c-3.15,4.27-7.24,7.65-12.25,10.16-5.01,2.51-10.55,3.76-16.61,3.76-5.07,0-9.76-.88-14.06-2.64-4.3-1.76-8.06-4.21-11.27-7.33-3.22-3.12-5.72-6.79-7.52-11-1.79-4.21-2.69-8.75-2.69-13.64s.9-9.43,2.69-13.64Z"/><path class="cls-3" d="M201.49,34.89c1.79-4.21,4.3-7.87,7.52-10.99,3.22-3.12,6.97-5.57,11.27-7.33,4.3-1.76,8.98-2.64,14.06-2.64,6,0,11.47,1.24,16.42,3.71,4.95,2.47,9.03,5.78,12.25,9.93l-8.54,7.61c-1.98-3.22-4.7-5.78-8.17-7.7-3.46-1.92-7.3-2.88-11.5-2.88-4.45,0-8.46,1.04-12.02,3.11-3.56,2.07-6.37,4.92-8.44,8.54-2.07,3.62-3.11,7.72-3.11,12.29s1.04,8.67,3.11,12.29c2.07,3.62,4.89,6.46,8.44,8.54,3.56,2.07,7.56,3.11,12.02,3.11s8.12-.97,11.55-2.92c3.43-1.95,6.14-4.53,8.12-7.75l8.72,7.42c-3.16,4.27-7.24,7.65-12.25,10.16-5.01,2.51-10.55,3.76-16.61,3.76-5.07,0-9.76-.88-14.06-2.64-4.3-1.76-8.06-4.21-11.27-7.33-3.22-3.12-5.72-6.79-7.52-11-1.79-4.21-2.69-8.75-2.69-13.64s.9-9.43,2.69-13.64Z"/><path class="cls-3" d="M273.31,15.41h24.59c4.89,0,9.15,.87,12.8,2.6,3.65,1.73,6.48,4.14,8.49,7.24,2.01,3.09,3.02,6.71,3.02,10.86s-1.01,7.67-3.02,10.76c-2.01,3.09-4.84,5.51-8.49,7.24-3.65,1.73-7.92,2.6-12.8,2.6h-12.53v24.96h-12.06V15.41Zm23.84,9.46h-11.78v22.36h11.78c3.77,0,6.79-1,9.05-3.02,2.26-2.01,3.39-4.72,3.39-8.12s-1.13-6.12-3.39-8.16c-2.26-2.04-5.27-3.06-9.05-3.06Z"/><path class="cls-3" d="M343.45,69.5c-.37,1.58-.56,2.78-.56,3.71,0,2.32,1.02,3.06,3.9,3.06,.93,0,1.95,0,3.25-.19l.28,3.43c-4.18,2.04-7.79,2.97-11.51,2.97-5.1,0-7.52-2.78-7.52-7.7,0-1.58,.28-3.34,.74-5.38l5.01-20.69c.37-1.39,.56-3.06,.56-3.53,0-2.41-.93-4.55-6.87-4.55l.74-3.25c2.69-1.39,6.96-2.69,10.67-2.69,4.64,0,7.14,2.13,7.14,7.15,0,1.48-.19,3.15-.65,5.1l-5.2,22.55Zm3.25-41.29c-3.9,0-6.96-3.06-6.96-6.87s3.06-6.87,6.96-6.87,6.87,3.06,6.87,6.87-3.06,6.87-6.87,6.87Z"/></g><g><path class="cls-2" d="M133.32,103.59h-1.47v-8.29h-3.21v-1.23h7.89v1.23h-3.21v8.29Z"/><path class="cls-2" d="M140.37,96.87c.26-.6,.62-1.13,1.08-1.58,.46-.45,1-.8,1.62-1.05,.62-.25,1.29-.38,2.01-.38s1.39,.13,2.01,.38c.62,.25,1.16,.6,1.62,1.05,.46,.45,.82,.97,1.08,1.58,.26,.6,.39,1.26,.39,1.96s-.13,1.35-.39,1.96c-.26,.6-.62,1.13-1.08,1.58-.46,.45-1,.8-1.62,1.05-.62,.25-1.29,.38-2.01,.38s-1.39-.13-2.01-.38c-.62-.25-1.16-.6-1.62-1.05-.46-.45-.82-.97-1.08-1.58-.26-.6-.39-1.26-.39-1.96s.13-1.36,.39-1.96Zm1.59,3.84c.31,.56,.74,.99,1.29,1.31s1.15,.47,1.83,.47,1.28-.16,1.83-.47c.54-.32,.97-.75,1.29-1.31,.32-.55,.47-1.18,.47-1.88s-.16-1.34-.47-1.89-.74-.98-1.29-1.3c-.54-.32-1.15-.47-1.83-.47s-1.28,.16-1.83,.47-.97,.75-1.29,1.3c-.32,.55-.47,1.18-.47,1.89s.16,1.33,.47,1.88Z"/><path class="cls-2" d="M154.66,94.07h1.32l4.02,7.76,4.01-7.76h1.32v9.51h-1.44v-6.66l-3.46,6.66h-.92l-3.46-6.69v6.69h-1.39v-9.51Z"/><path class="cls-2" d="M170.21,96.87c.26-.6,.62-1.13,1.08-1.58,.46-.45,1-.8,1.62-1.05,.62-.25,1.29-.38,2.01-.38s1.39,.13,2.01,.38c.62,.25,1.16,.6,1.62,1.05,.46,.45,.82,.97,1.08,1.58,.26,.6,.39,1.26,.39,1.96s-.13,1.35-.39,1.96c-.26,.6-.62,1.13-1.08,1.58-.46,.45-1,.8-1.62,1.05-.62,.25-1.29,.38-2.01,.38s-1.39-.13-2.01-.38c-.62-.25-1.16-.6-1.62-1.05-.46-.45-.82-.97-1.08-1.58-.26-.6-.39-1.26-.39-1.96s.13-1.36,.39-1.96Zm1.59,3.84c.31,.56,.74,.99,1.29,1.31s1.15,.47,1.83,.47,1.28-.16,1.83-.47c.54-.32,.97-.75,1.29-1.31,.32-.55,.47-1.18,.47-1.88s-.16-1.34-.47-1.89-.74-.98-1.29-1.3c-.54-.32-1.15-.47-1.83-.47s-1.28,.16-1.83,.47-.97,.75-1.29,1.3c-.32,.55-.47,1.18-.47,1.89s.16,1.33,.47,1.88Z"/><path class="cls-2" d="M184.52,100.79c-.26-.6-.39-1.26-.39-1.96s.13-1.36,.39-1.96c.26-.6,.62-1.13,1.08-1.58,.46-.45,1-.8,1.63-1.05,.62-.25,1.3-.38,2.03-.38,.87,0,1.66,.18,2.38,.54,.71,.36,1.3,.84,1.77,1.45l-1.04,.95c-.33-.5-.75-.89-1.28-1.19-.52-.29-1.12-.44-1.79-.44s-1.31,.16-1.87,.48c-.55,.32-.99,.76-1.31,1.31s-.48,1.18-.48,1.88,.16,1.33,.48,1.88,.75,.99,1.29,1.31c.54,.32,1.15,.48,1.81,.48,.59,0,1.12-.12,1.59-.37s.88-.58,1.2-1.01c.32-.43,.54-.91,.65-1.45h-3.58v-1.21h4.98v.43c0,.68-.12,1.31-.37,1.91-.24,.6-.59,1.12-1.03,1.57-.44,.45-.96,.8-1.55,1.06-.6,.26-1.24,.39-1.95,.39s-1.36-.13-1.97-.38c-.61-.25-1.14-.6-1.61-1.05-.46-.45-.82-.97-1.08-1.58Z"/><path class="cls-2" d="M198.51,94.07h3.13c.7,0,1.31,.12,1.83,.35,.52,.23,.92,.56,1.21,.98,.29,.42,.43,.91,.43,1.47,0,.5-.13,.94-.38,1.34s-.61,.71-1.07,.94c-.46,.23-1.01,.36-1.64,.39l4.1,4.05h-1.96l-3.96-4.05h-.23v4.05h-1.47v-9.51Zm1.47,4.41h1.67c.58,0,1.04-.15,1.4-.44,.35-.29,.53-.68,.53-1.17s-.18-.88-.53-1.17c-.36-.29-.82-.44-1.4-.44h-1.67v3.22Z"/><path class="cls-2" d="M213.76,94.07h1.21l4.38,9.51h-1.57l-1.07-2.41h-4.73l-1.07,2.41h-1.51l4.34-9.51Zm2.43,5.88l-1.83-4.17-1.84,4.17h3.67Z"/><path class="cls-2" d="M223.44,94.07h3.37c.7,0,1.31,.12,1.83,.37,.51,.25,.92,.59,1.21,1.03,.29,.44,.43,.95,.43,1.54s-.14,1.1-.43,1.54c-.29,.44-.69,.78-1.21,1.03-.52,.24-1.12,.37-1.83,.37h-1.91v3.65h-1.47v-9.51Zm3.37,1.19h-1.91v3.49h1.91c.58,0,1.04-.16,1.4-.48,.36-.32,.53-.74,.53-1.27s-.18-.95-.53-1.27c-.36-.32-.82-.48-1.4-.48Z"/><path class="cls-2" d="M241.99,103.59h-1.47v-4.5h-4.5v4.5h-1.47v-9.51h1.47v3.78h4.5v-3.78h1.47v9.51Z"/><path class="cls-2" d="M248.31,103.59h-1.47v-9.51h1.47v9.51Z"/><path class="cls-2" d="M253.17,96.88c.25-.6,.61-1.13,1.07-1.58,.46-.45,.99-.81,1.61-1.06,.61-.25,1.28-.38,2-.38,.84,0,1.62,.18,2.33,.53s1.29,.83,1.75,1.44l-1.04,.95c-.31-.5-.73-.89-1.25-1.18-.52-.29-1.11-.43-1.75-.43-.67,0-1.28,.16-1.83,.48-.54,.32-.97,.76-1.29,1.31s-.47,1.18-.47,1.88,.16,1.32,.47,1.87c.32,.55,.74,.99,1.29,1.31,.54,.32,1.15,.48,1.83,.48s1.23-.15,1.75-.44c.52-.29,.94-.69,1.25-1.19l1.08,.91c-.45,.62-1.04,1.12-1.75,1.48s-1.5,.55-2.37,.55c-.72,0-1.39-.13-2-.38-.61-.25-1.15-.61-1.61-1.06-.46-.45-.81-.98-1.07-1.58-.25-.6-.38-1.25-.38-1.95s.13-1.35,.38-1.95Z"/><path class="cls-2" d="M273.99,103.59h-1.47v-9.51h1.47v9.51Z"/><path class="cls-2" d="M278.82,94.07h1.32l4.02,7.76,4.01-7.76h1.32v9.51h-1.44v-6.66l-3.46,6.66h-.92l-3.46-6.69v6.69h-1.39v-9.51Z"/><path class="cls-2" d="M297.93,94.07h1.21l4.38,9.51h-1.57l-1.07-2.41h-4.73l-1.07,2.41h-1.51l4.34-9.51Zm2.42,5.88l-1.83-4.17-1.84,4.17h3.66Z"/><path class="cls-2" d="M307.11,100.79c-.26-.6-.39-1.26-.39-1.96s.13-1.36,.39-1.96c.26-.6,.62-1.13,1.08-1.58,.46-.45,1-.8,1.63-1.05,.62-.25,1.3-.38,2.03-.38,.87,0,1.66,.18,2.38,.54,.71,.36,1.3,.84,1.77,1.45l-1.04,.95c-.33-.5-.76-.89-1.28-1.19-.52-.29-1.12-.44-1.79-.44s-1.31,.16-1.87,.48c-.55,.32-.99,.76-1.31,1.31-.32,.55-.48,1.18-.48,1.88s.16,1.33,.48,1.88c.32,.55,.75,.99,1.29,1.31,.54,.32,1.15,.48,1.81,.48,.59,0,1.12-.12,1.59-.37,.47-.24,.88-.58,1.2-1.01,.32-.43,.54-.91,.65-1.45h-3.58v-1.21h4.98v.43c0,.68-.12,1.31-.37,1.91-.24,.6-.59,1.12-1.03,1.57-.44,.45-.96,.8-1.55,1.06-.6,.26-1.24,.39-1.95,.39s-1.36-.13-1.96-.38c-.61-.25-1.14-.6-1.61-1.05-.46-.45-.82-.97-1.08-1.58Z"/><path class="cls-2" d="M322.57,103.59h-1.47v-9.51h1.47v9.51Z"/><path class="cls-2" d="M327.41,94.07h1.13l5.54,7.06v-7.06h1.41v9.51h-1.13l-5.54-7.05v7.05h-1.41v-9.51Z"/><path class="cls-2" d="M340.37,100.79c-.26-.6-.39-1.26-.39-1.96s.13-1.36,.39-1.96c.26-.6,.62-1.13,1.08-1.58,.46-.45,1-.8,1.63-1.05,.62-.25,1.3-.38,2.03-.38,.87,0,1.66,.18,2.38,.54,.71,.36,1.3,.84,1.77,1.45l-1.04,.95c-.33-.5-.76-.89-1.28-1.19-.52-.29-1.12-.44-1.79-.44s-1.31,.16-1.87,.48c-.55,.32-.99,.76-1.31,1.31-.32,.55-.48,1.18-.48,1.88s.16,1.33,.48,1.88c.32,.55,.75,.99,1.29,1.31,.54,.32,1.15,.48,1.81,.48,.59,0,1.12-.12,1.59-.37,.47-.24,.88-.58,1.2-1.01,.32-.43,.54-.91,.65-1.45h-3.58v-1.21h4.98v.43c0,.68-.12,1.31-.37,1.91-.24,.6-.59,1.12-1.03,1.57-.44,.45-.96,.8-1.55,1.06-.6,.26-1.24,.39-1.95,.39s-1.36-.13-1.96-.38c-.61-.25-1.14-.6-1.61-1.05-.46-.45-.82-.97-1.08-1.58Z"/></g></g><g><g><polygon class="cls-2" points="55.32 39.15 55.32 58.86 72.4 68.72 72.4 68.72 72.4 49 55.32 39.15"/><polygon class="cls-2" points="72.4 88.44 72.4 88.44 55.32 98.3 72.4 108.15 72.4 108.15 72.4 88.44"/><polygon class="cls-2" points="55.32 19.43 55.32 39.15 72.4 29.29 55.32 19.43"/><polygon class="cls-2" points="21.17 19.43 21.17 39.15 38.25 29.29 21.17 19.43"/><polygon class="cls-2" points="89.47 78.58 89.47 58.86 89.47 58.86 72.4 68.72 72.4 68.72 89.47 78.58 89.47 78.58"/><polygon class="cls-2" points="89.47 98.3 89.47 98.3 89.47 78.58 89.47 78.58 72.4 88.44 72.4 88.44 89.47 98.3"/><polygon class="cls-2" points="72.4 88.44 72.4 68.72 72.4 68.72 55.32 78.58 55.32 78.58 72.4 88.44 72.4 88.44"/><polygon class="cls-2" points="72.4 29.29 72.4 49 89.47 58.86 89.47 39.15 72.4 29.29"/><polygon class="cls-2" points="38.25 29.29 38.25 49 55.32 39.15 38.25 29.29"/><polygon class="cls-2" points="38.25 9.57 38.25 29.29 55.32 19.43 38.25 9.57"/></g><g><polygon class="cls-4" points="72.4 49 72.4 49 72.4 68.72 89.47 58.86 72.4 49"/><polygon class="cls-4" points="38.25 68.72 38.25 68.72 21.17 78.58 38.25 88.44 38.25 88.44 38.25 68.72"/><polygon class="cls-4" points="21.17 78.58 21.17 58.86 21.17 58.86 4.1 68.72 4.1 68.72 21.17 78.58"/><polygon class="cls-4" points="21.17 58.86 21.17 39.15 21.17 39.15 4.1 49 4.1 49 21.17 58.86 21.17 58.86"/><polygon class="cls-4" points="72.4 68.72 72.4 88.44 89.47 78.58 72.4 68.72"/><polygon class="cls-4" points="106.55 68.72 89.47 58.86 89.47 78.58 106.55 68.72 106.55 68.72"/><polygon class="cls-4" points="55.32 78.58 55.32 78.58 38.25 88.44 38.25 88.44 55.32 98.3 72.4 88.44 55.32 78.58"/><polygon class="cls-4" points="55.32 58.86 38.25 68.72 55.32 78.58 55.32 78.58 72.4 68.72 55.32 58.86"/><polygon class="cls-4" points="89.47 39.15 89.47 58.86 106.55 49 89.47 39.15"/><polygon class="cls-4" points="38.25 68.72 38.25 49 38.25 49 21.17 58.86 21.17 58.86 38.25 68.72 38.25 68.72"/></g><g><polygon class="cls-1" points="72.4 29.29 72.4 9.57 55.32 19.43 55.32 19.43 72.4 29.29 72.4 29.29"/><polygon class="cls-1" points="55.32 39.15 38.25 49 38.25 49 38.25 68.72 55.32 58.86 55.32 39.15 55.32 39.15"/><polygon class="cls-1" points="72.4 49 72.4 29.29 72.4 29.29 55.32 39.15 55.32 39.15 72.4 49"/><polygon class="cls-1" points="55.32 98.3 38.25 88.44 38.25 108.15 55.32 98.3 55.32 98.3"/><polygon class="cls-1" points="89.47 39.15 89.47 19.43 89.47 19.43 72.4 29.29 72.4 29.29 89.47 39.15 89.47 39.15"/><polygon class="cls-1" points="38.25 88.44 55.32 78.58 38.25 68.72 38.25 88.44"/><polygon class="cls-1" points="21.17 78.58 21.17 98.3 38.25 88.44 21.17 78.58 21.17 78.58"/><polygon class="cls-1" points="55.32 39.15 55.32 39.15 55.32 19.43 55.32 19.43 38.25 29.29 38.25 29.29 55.32 39.15"/><polygon class="cls-1" points="21.17 39.15 21.17 58.86 38.25 49 38.25 49 38.25 29.29 21.17 39.15"/><polygon class="cls-1" points="38.25 68.72 21.17 58.86 21.17 78.58 21.17 78.58 38.25 68.72"/></g><polygon class="cls-5" points="66.88 23.33 66.82 23.29 66.77 23.32 66.84 23.35 66.88 23.33"/></g><polygon class="cls-6" points="67.48 24.13 67.42 24.1 67.37 24.12 67.43 24.16 67.48 24.13"/></g></g></g></svg>