<?xml version="1.0" encoding="UTF-8" standalone="no"?>
<svg
   xmlns:dc="http://purl.org/dc/elements/1.1/"
   xmlns:cc="http://creativecommons.org/ns#"
   xmlns:rdf="http://www.w3.org/1999/02/22-rdf-syntax-ns#"
   xmlns:svg="http://www.w3.org/2000/svg"
   xmlns="http://www.w3.org/2000/svg"
   version="1.0"
   width="526.000000pt"
   height="170.000000pt"
   viewBox="0 0 526.000000 170.000000"
   preserveAspectRatio="xMidYMid meet"
   id="svg24">
  <metadata
     id="metadata30">
    <rdf:RDF>
      <cc:Work
         rdf:about="">
        <dc:format>image/svg+xml</dc:format>
        <dc:type
           rdf:resource="http://purl.org/dc/dcmitype/StillImage" />
        <dc:title></dc:title>
      </cc:Work>
    </rdf:RDF>
  </metadata>
  <defs
     id="defs28" />
  <g
     transform="translate(0.000000,170.000000) scale(0.100000,-0.100000)"
     fill="#000000"
     stroke="none"
     id="g22">
    <path
       d="M770 1636 c-466 -136 -713 -636 -538 -1086 76 -193 212 -341 403 -438 63 -32 174 -67 237 -76 l37 -5 -29 77 c-15 42 -47 129 -71 192 -23 63 -85 198 -136 299 -52 101 -101 209 -109 240 -35 134 -25 163 208 650 43 90 77 165 76 167 -2 1 -37 -8 -78 -20z"
       id="path2"
       style="fill:#808080;fill-opacity:1" />
    <path
       d="M1148 1623 c-9 -16 -65 -120 -126 -233 -152 -285 -161 -299 -223 -349 -68 -55 -72 -62 -60 -108 15 -53 64 -109 122 -138 101 -52 178 -26 165 55 -23 138 -37 99 153 429 148 258 181 321 169 321 -2 0 -36 11 -76 25 -93 31 -104 31 -124 -2z"
       id="path4" />
    <path
       d="m 1393.9074,1147 c -125,-122 -234,-237 -243,-256 -24,-48 -15,-81 49,-192 92,-157 134,-300 151,-512 l 7,-77 60,32 c 115,62 256,213 321,343 109,218 109,498 0,720 -36,73 -98,165 -111,165 -4,0 -109,-100 -234,-223 z"
       id="path6"
       style="fill:#808080;fill-opacity:1" />
    <path
       d="M2970 1323 c0 -4 27 -118 60 -253 34 -135 82 -329 107 -432 l46 -188 138 0 c122 0 138 2 143 18 16 53 206 837 206 848 0 11 -25 14 -120 14 -66 0 -120 -1 -120 -2 -5 -55 -110 -578 -113 -568 -4 8 -22 107 -42 220 -19 113 -41 237 -48 275 l-13 70 -122 3 c-67 1 -122 -1 -122 -5z"
       id="path8" />
    <path
       d="M3802 1113 c55 -115 101 -212 101 -218 0 -5 -45 -105 -101 -222 -56 -117 -102 -215 -102 -218 0 -3 55 -4 121 -3 l121 3 18 45 c9 25 29 78 44 118 15 39 31 72 35 72 3 0 27 -54 51 -120 l44 -120 128 0 c70 0 128 3 128 7 0 3 -50 103 -111 221 l-110 215 82 181 c45 99 88 196 96 214 l13 32 -123 0 -123 0 -33 -102 c-18 -57 -36 -106 -40 -111 -4 -4 -23 42 -42 103 l-34 110 -132 0 -132 0 101 -207z"
       id="path10"
       style="fill:#808080;fill-opacity:1" />
    <path
       d="M4460 885 l0 -435 115 0 115 0 0 155 c0 121 3 155 13 155 7 0 43 -69 82 -155 l68 -155 123 0 123 0 -12 28 c-7 15 -40 82 -75 149 -34 68 -62 128 -62 135 0 7 15 20 32 28 66 31 73 52 76 243 3 203 -4 227 -78 265 -42 21 -55 22 -282 22 l-238 0 0 -435z m358 263 c8 -8 12 -48 12 -114 0 -116 2 -114 -86 -114 l-54 0 0 120 0 120 58 0 c32 0 63 -5 70 -12z"
       id="path12"
       style="fill:#808080;fill-opacity:1" />
    <path
       d="M2444 1119 c-38 -11 -82 -53 -92 -88 -4 -14 -7 -118 -7 -231 0 -175 3 -210 17 -236 48 -88 234 -103 295 -24 10 12 12 6 13 -36 0 -27 -5 -55 -12 -62 -8 -8 -56 -12 -149 -12 l-137 0 2 -77 1 -78 205 0 c187 0 208 2 239 20 19 11 43 33 55 48 20 28 21 40 24 408 l3 379 -117 0 -116 0 4 -30 c5 -35 -7 -50 -17 -21 -13 43 -127 65 -211 40z m214 -171 c13 -13 18 -242 6 -272 -8 -22 -80 -22 -88 0 -12 30 -7 259 6 272 15 15 61 15 76 0z"
       id="path14" />
    <path
       d="M676 1059 c-38 -30 -56 -71 -56 -127 0 -62 33 -115 73 -120 35 -4 43 17 21 59 -42 83 -37 123 24 176 l37 33 -36 0 c-22 0 -47 -8 -63 -21z"
       id="path16" />
    <path
       d="M712 758 c-25 -25 -14 -82 28 -147 81 -126 128 -238 185 -443 l39 -138 79 0 c64 0 78 3 74 14 -22 58 -147 478 -147 495 0 13 22 43 56 75 41 41 55 60 52 78 -3 25 6 24 -133 18 -40 -2 -61 4 -105 28 -57 33 -107 41 -128 20z"
       id="path18" />
    <path
       d="M1095 621 c-8 -16 -29 -41 -47 -54 l-32 -26 27 -53 c14 -29 47 -127 72 -218 70 -250 61 -230 97 -219 17 4 33 10 35 13 3 3 -25 101 -62 218 -66 211 -66 214 -55 269 19 86 -3 130 -35 70z"
       id="path20" />
  </g>
</svg>
