<?xml version="1.0" encoding="UTF-8" standalone="no"?>
<svg
   height="303.22"
   id="形状_1_1_"
   version="1.1"
   viewBox="0 0 460.009 303.22"
   width="460.009"
   xml:space="preserve"
   xmlns="http://www.w3.org/2000/svg"
   xmlns:svg="http://www.w3.org/2000/svg"><defs
     id="defs1" /><g
     id="形状_1"
     transform="translate(-25.997,-104.89)"><g
       id="g1"><path
         d="m 351.748,351.29 c -4.15,1.533 -8.223,2.536 -12.33,4.152 -6.144,2.416 -18.532,5.735 -25.381,7.204 -8.818,1.891 -17.205,4.289 -26.445,6.139 -9.529,1.907 -18.018,2.934 -27.912,4.671 -9.151,1.608 -19.985,2.164 -29.749,2.836 -10.197,0.702 -20.78,1.151 -31.815,1.151 h -2.3 c -39.283,0 -76.76,-6.178 -102.989,-19.296 C 67.598,345.528 44.014,322.14 44.014,284.674 v -3.45 c 0,-17.625 5.414,-31.166 10.504,-43.93 2.234,-5.603 6.447,-12.744 9.659,-17.558 2.007,-3.008 3.637,-5.197 5.744,-8.056 1.884,-2.555 4.819,-5.308 6.293,-7.508 v -12.267 c -6.112,4.093 -12.536,12.145 -17.721,17.547 -5.883,6.129 -10.245,12.965 -15.093,20.174 -7.197,10.699 -17.403,35.597 -17.403,53.13 v 12.268 c 0,21.642 8.584,40.881 17.325,53.976 9.894,14.826 23.076,23.597 38.182,33.12 11.918,7.514 35.985,15.849 52.242,19.06 20.041,3.957 40.267,6.93 64.371,6.93 H 210 c 74.079,0 149.344,-21.509 197.804,-47.15 v -34.884 c -13.112,6.938 -29.256,16.099 -44.393,20.774 -3.219,0.996 -8.292,3.193 -11.663,4.44 z M 483.935,191.294 c -0.722,-4.01 -2.175,-9.129 -3.562,-12.54 -3.463,-8.516 -6.339,-14.273 -11.516,-21.068 -9.574,-12.572 -20.979,-21.657 -35.24,-29.545 -26.18,-14.479 -66.028,-23.251 -106.699,-23.251 h -3.45 c -41.966,0 -76.674,6.979 -109.479,16.255 -8.664,2.45 -15.711,4.979 -23.781,7.653 -6.681,2.213 -16.462,5.919 -22.509,8.925 -7.168,3.563 -14.317,6.624 -21.334,10.1 -3.717,1.843 -17.99,10.575 -20.316,11.118 v 9.199 c 3.163,-0.736 14.813,-7.172 19.291,-9.077 6.213,-2.642 14.012,-6.564 20.269,-8.48 2.837,-0.869 7.526,-2.644 10.341,-3.843 3.417,-1.457 6.988,-2.348 10.619,-3.564 6.921,-2.32 14.658,-4.938 21.978,-6.772 15.769,-3.954 29.664,-7.164 46.914,-10.205 14.698,-2.59 35.37,-5.208 51.91,-5.208 h 17.25 c 33.585,0 69.945,7.712 91.486,19.682 13.07,7.264 21.853,13.375 30.867,24.717 6.794,8.548 15.265,25.598 15.265,40.703 v 6.517 c 0,15.921 -8.271,33.042 -15.175,42.326 -4.187,5.629 -8.335,10.645 -13.474,15.276 -2.498,2.252 -14.164,11.512 -16.97,12.165 v 25.3 c 5.404,-0.448 21.664,-10.918 25.843,-14.023 7.699,-5.727 14.597,-12.314 20.473,-19.778 6.683,-8.486 10.287,-14.706 15.147,-25.104 2.201,-4.706 3.473,-9.541 5.076,-14.858 0.65,-2.158 2.802,-17.399 2.847,-17.47 v -11.117 c -0.132,-0.207 -1.785,-12.44 -2.071,-14.033 z m -120.984,77.281 v -10.351 c 0,-12.192 -4.36,-23.934 -9.688,-30.945 -5.058,-6.655 -15.318,-14.288 -26.729,-14.288 h -7.283 c -12.057,0 -22.967,7.568 -28.853,14.081 -6.01,6.65 -11.014,19.314 -11.014,31.919 v 4.601 c 0,26.355 16.17,45.616 42.55,45.616 h 4.983 c 7.985,0 13.688,-1.934 19.402,-4.362 6.223,-2.645 9.387,-7.148 14.046,-10.307 l -15.049,-14.081 c -2.964,4.427 -11.176,8.817 -18.783,8.817 h -4.217 c -9.978,0 -19.166,-8.483 -19.166,-18.017 v -2.684 h 59.801 z m -59.8,-18.784 c 0,-8.64 8.424,-17.25 17.249,-17.25 h 1.917 c 10.023,0 16.868,8.5 16.868,18.017 v 1.917 h -36.034 z m -88.552,57.884 v -65.551 c 0,-15.554 -10.585,-27.601 -26.067,-27.601 h -50.601 v 93.151 h 23.384 V 233.69 h 21.083 c 4.646,0 8.434,3.597 8.434,8.051 v 65.934 z m 17.25,-118.834 v 91.233 c 0,15.743 10.236,27.601 25.684,27.601 h 16.101 V 287.741 H 261.75 c -3.52,0 -6.133,-4.073 -6.133,-7.667 V 233.69 h 18.017 V 214.523 H 255.617 V 188.84 h -23.768 z m 168.67,118.068 V 175.808 h -23.767 v 109.251 c 0,6.363 3.854,12.134 7.181,15.436 1.787,1.772 4.609,3.235 7.226,4.275 3.661,1.457 5.554,1.252 9.36,2.139 z m -283.671,1.916 v -94.302 l -23.679,0.003 -0.565,21.846 0.093,46.386 c 0,15.714 9.212,25.734 24.151,26.067 z m 0,-129.952 H 93.081 v 22.618 h 23.767 z m 306.791,7.26 h 0.969 c 0.581,0 1.024,0.116 1.326,0.353 0.438,0.319 1.012,1.115 1.726,2.381 l 0.909,1.614 h 2.02 l -1.249,-2.003 c -0.599,-0.95 -1.103,-1.626 -1.515,-2.031 -0.216,-0.21 -0.51,-0.392 -0.87,-0.542 0.882,-0.069 1.593,-0.379 2.127,-0.934 0.534,-0.556 0.8,-1.206 0.8,-1.955 0,-0.529 -0.159,-1.028 -0.479,-1.502 -0.321,-0.47 -0.748,-0.801 -1.286,-0.99 -0.538,-0.189 -1.408,-0.28 -2.612,-0.28 h -3.518 v 10.237 h 1.652 z m 0,-4.503 h 1.878 c 0.809,0 1.36,0.056 1.661,0.177 0.298,0.116 0.53,0.297 0.697,0.533 0.168,0.241 0.255,0.512 0.255,0.813 0,0.474 -0.177,0.853 -0.526,1.137 -0.349,0.284 -1.002,0.431 -1.958,0.431 h -2.007 z m -2.212,11.847 c 1.507,0.839 3.086,1.257 4.735,1.257 1.648,0 3.224,-0.418 4.735,-1.257 1.507,-0.835 2.683,-2.011 3.517,-3.526 0.839,-1.511 1.258,-3.086 1.258,-4.727 0,-1.656 -0.427,-3.25 -1.274,-4.773 -0.849,-1.528 -2.036,-2.699 -3.557,-3.521 -1.523,-0.817 -3.082,-1.227 -4.679,-1.227 -1.598,0 -3.16,0.409 -4.679,1.227 -1.524,0.822 -2.713,1.993 -3.565,3.521 -0.853,1.523 -1.278,3.117 -1.278,4.773 0,1.641 0.418,3.216 1.261,4.727 0.84,1.515 2.014,2.691 3.526,3.526 z m -3.211,-8.253 c 0,-1.381 0.356,-2.707 1.071,-3.981 0.715,-1.27 1.704,-2.251 2.971,-2.936 1.265,-0.685 2.564,-1.029 3.904,-1.029 1.326,0 2.626,0.345 3.896,1.029 1.27,0.684 2.26,1.666 2.971,2.936 0.71,1.274 1.063,2.601 1.063,3.981 0,1.369 -0.349,2.683 -1.046,3.939 -0.697,1.256 -1.675,2.238 -2.936,2.94 -1.261,0.701 -2.578,1.055 -3.947,1.055 -1.373,0 -2.686,-0.354 -3.947,-1.055 -1.262,-0.702 -2.242,-1.684 -2.945,-2.94 -0.703,-1.257 -1.055,-2.57 -1.055,-3.939 z"
         style="clip-rule:evenodd;fill:#0072bb;fill-rule:evenodd"
         id="path1" /></g></g></svg>
